<?xml version="1.0" ?><svg style="enable-background:new 0 0 64 64;" version="1.1" viewBox="0 0 64 64" xml:space="preserve" xmlns="http://www.w3.org/2000/svg" xmlns:xlink="http://www.w3.org/1999/xlink"><style type="text/css">
	.st0{fill:#FFEEA9;}
	.st1{fill:#D32436;}
	.st2{fill:#8DD1D3;}
	.st3{fill:#330D00;}
	.st4{fill:none;stroke:#330D00;stroke-linecap:round;stroke-linejoin:round;stroke-miterlimit:10;}
</style><g id="_x34_0-Id_Card"/><g id="_x33_9-Formula"/><g id="_x33_8-Elbow"/><g id="_x33_7-Diploma"/><g id="_x33_6-Laptop"/><g id="_x33_5-Brush"/><g id="_x33_4-Baseball"/><g id="_x33_3-Student"/><g id="_x33_2-Highlighter"/><g id="_x33_1-Ruler"/><g id="_x33_0-Caliper"/><g id="_x32_9-Ruler_Elbow"/><g id="_x32_8-Abacus"/><g id="_x32_7-Id_Card"/><g id="_x32_6-Eraser"><g><g><rect class="st1" height="32.5" transform="matrix(0.5203 -0.854 0.854 0.5203 10.9105 44.7735)" width="7.3" x="41.7" y="-3.6"/></g><g><rect class="st2" height="32.5" transform="matrix(0.5203 -0.854 0.854 0.5203 -12.3413 43.9485)" width="40.2" x="12.9" y="16.7"/></g><g><polygon class="st0" points="33.7,62.9 36.4,58.6 8.6,41.7 2.9,51 22.4,62.9    "/></g><g><g><path class="st3" d="M61.7,17.1L33.9,0.2C33.7,0,33.4,0,33.1,0c-0.3,0.1-0.5,0.2-0.7,0.5l-3.8,6.2L7.7,41.1L2,50.5      C1.7,51,1.8,51.7,2.3,52l19.5,11.9c0.2,0.1,0.4,0.2,0.6,0.2h11.3c0.4,0,0.7-0.2,0.9-0.5l2.6-4.3l20.9-34.3l3.8-6.2      C62.3,18.1,62.2,17.4,61.7,17.1z M33.1,61.8H22.7L4.4,50.7L9,43.2l25.9,15.8L33.1,61.8z M36,57.1L10.1,41.3L29.9,8.9l25.9,15.8      L36,57.1z M56.9,22.7L31.1,7l2.7-4.4l25.9,15.8L56.9,22.7z"/></g><g><path class="st3" d="M28.5,15.3c-0.3,0.5-0.2,1.2,0.4,1.5l7.9,4.8c0.2,0.1,0.4,0.2,0.6,0.2c0.4,0,0.7-0.2,0.9-0.5      c0.3-0.5,0.2-1.2-0.4-1.5l-7.9-4.8C29.5,14.6,28.9,14.8,28.5,15.3z"/></g><g><path class="st3" d="M33.2,27.6l-7.9-4.8c-0.5-0.3-1.2-0.2-1.5,0.4c-0.3,0.5-0.2,1.2,0.4,1.5l7.9,4.8c0.2,0.1,0.4,0.2,0.6,0.2      c0.4,0,0.7-0.2,0.9-0.5C33.9,28.6,33.8,27.9,33.2,27.6z"/></g></g></g></g><g id="_x32_5-Pencil"/><g id="_x32_4-Ink"/><g id="_x32_3-Graduation_Cap"/><g id="_x32_2-_Sling_Bag"/><g id="_x32_1-Rugby_Ball"/><g id="_x32_0-Clock"/><g id="_x31_9-Certificate"/><g id="_x31_8-Idea"/><g id="_x31_7-Bookshelf"/><g id="_x31_6-Formula"/><g id="_x31_5-Bell"/><g id="_x31_4-Magnifying_Glass"/><g id="_x31_3-Calculator"/><g id="_x31_2-Eyeglasses"/><g id="_x31_1-Bus"/><g id="_x31_0-Trophy"/><g id="_x39_-Globe"/><g id="_x38_-Basket_Ball"/><g id="_x37_-Pen"/><g id="_x36_-Board"/><g id="_x35_-Bag"/><g id="_x34_-Exam"/><g id="_x33_-Book"/><g id="_x32_-Ruler"/><g id="_x31_-Building"/></svg>